<?xml version="1.0" encoding="UTF-8" standalone="no"?>
<!DOCTYPE svg PUBLIC "-//W3C//DTD SVG 1.1//EN" "http://www.w3.org/Graphics/SVG/1.1/DTD/svg11.dtd">
<!-- Generated by Microsoft Visio, SVG Export xnor3.svg Page-6 -->
<svg xmlns="http://www.w3.org/2000/svg" xmlns:xlink="http://www.w3.org/1999/xlink" xmlns:ev="http://www.w3.org/2001/xml-events"
		xmlns:v="http://schemas.microsoft.com/visio/2003/SVGExtensions/" width="4.61147in" height="1.65469in"
		viewBox="0 0 332.026 119.138" xml:space="preserve" color-interpolation-filters="sRGB" class="st6">
	<v:documentProperties v:langID="1065" v:metric="true" v:viewMarkup="false">
		<v:userDefs>
			<v:ud v:nameU="msvNoAutoConnect" v:val="VT0(1):26"/>
		</v:userDefs>
	</v:documentProperties>

	<style type="text/css">
	<![CDATA[
		.st1 {fill:#d8d8d8}
		.st2 {stroke:#000000;stroke-linecap:round;stroke-linejoin:round;stroke-width:1.5}
		.st3 {fill:#d8d8d8;stroke:#000000;stroke-linecap:round;stroke-linejoin:round;stroke-width:1.5}
		.st4 {fill:none;stroke:none;stroke-linecap:round;stroke-linejoin:round;stroke-width:0.75}
		.st5 {fill:#000000;font-family:Cambria;font-size:1.00001em;font-weight:bold}
		.st6 {fill:none;fill-rule:evenodd;font-size:12px;overflow:visible;stroke-linecap:square;stroke-miterlimit:3}
	]]>
	</style>

	<g v:mID="16" v:index="6" v:groupContext="foregroundPage">
		<v:userDefs>
			<v:ud v:nameU="msvThemeOrder" v:val="VT0(0):26"/>
		</v:userDefs>
		<title>Page-6</title>
		<v:pageProperties v:drawingScale="0.0393701" v:pageScale="0.0393701" v:drawingUnits="24" v:shadowOffsetX="8.50394"
				v:shadowOffsetY="-8.50394"/>
		<v:layer v:name="Flowchart" v:index="0"/>
		<g id="shape1000-1" v:mID="1000" v:groupContext="shape" v:layerMember="0" transform="translate(105.068,-18.75)">
			<title>XOR (Exclusive Or).212</title>
			<v:custProps>
				<v:cp v:nameU="Cost" v:lbl="Cost" v:type="7" v:format="@" v:langID="1033"/>
				<v:cp v:nameU="Duration" v:lbl="Duration" v:type="2" v:langID="1033"/>
				<v:cp v:nameU="Resources" v:lbl="Resources" v:langID="1033"/>
			</v:custProps>
			<v:userDefs>
				<v:ud v:nameU="visVersion" v:val="VT0(15):26"/>
			</v:userDefs>
			<path d="M19.44 37.5 A125.8 117.937 0 0 1 19.44 119.14 L69.98 119.14 A89.0535 77.9218 -180 0 0 136.06 78.32 A89.0535
						 77.9218 -180 0 0 69.98 37.5 L19.44 37.5 Z" class="st1"/>
			<path d="M19.44 37.5 A125.8 117.937 0 0 1 19.44 119.14 L69.98 119.14 A89.0535 77.9218 -180 0 0 136.06 78.32 A89.0535
						 77.9218 -180 0 0 69.98 37.5 L19.44 37.5" class="st2"/>
			<path d="M0 37.5 A116.82 102.217 0 0 1 0 119.14" class="st2"/>
		</g>
		<g id="shape1001-5" v:mID="1001" v:groupContext="shape" transform="translate(51.0378,-79.9783)">
			<title>Sheet.1001</title>
			<path d="M0 119.14 L61.29 119.14" class="st2"/>
		</g>
		<g id="shape1002-8" v:mID="1002" v:groupContext="shape" transform="translate(51.5821,-39.1594)">
			<title>Sheet.1002</title>
			<path d="M0 119.14 L60.74 119.14" class="st2"/>
		</g>
		<g id="shape1003-11" v:mID="1003" v:groupContext="shape" transform="translate(52.6269,-58.5554)">
			<title>Sheet.1003</title>
			<path d="M0 119.14 L62.15 119.14" class="st2"/>
		</g>
		<g id="shape1004-14" v:mID="1004" v:groupContext="shape" transform="translate(358.656,53.8022) rotate(90)">
			<title>Circle.219</title>
			<v:userDefs>
				<v:ud v:nameU="visVersion" v:val="VT0(15):26"/>
			</v:userDefs>
			<path d="M0 113.37 A5.76674 5.76674 0 0 1 11.53 113.37 A5.76674 5.76674 0 1 1 0 113.37 Z" class="st3"/>
		</g>
		<g id="shape1005-16" v:mID="1005" v:groupContext="shape" transform="translate(251.052,-59.5689)">
			<title>Sheet.1005</title>
			<path d="M0 119.14 L28.35 119.14" class="st2"/>
		</g>
		<g id="shape1006-19" v:mID="1006" v:groupContext="shape" transform="translate(273.493,-51.1624)">
			<title>Sheet.1006</title>
			<desc>f</desc>
			<v:textBlock v:margins="rect(4,4,4,4)" v:tabSpace="42.5197"/>
			<v:textRect cx="20.0787" cy="112.051" width="40.16" height="14.1732"/>
			<rect x="0" y="104.965" width="40.1575" height="14.1732" class="st4"/>
			<text x="18.12" y="115.65" class="st5" v:langID="1033"><v:paragraph v:horizAlign="1"/><v:tabList/>f</text>		</g>
		<g id="shape1007-22" v:mID="1007" v:groupContext="shape" transform="translate(18.375,-73.4587)">
			<title>Sheet.1007</title>
			<desc>a</desc>
			<v:textBlock v:margins="rect(4,4,4,4)" v:tabSpace="42.5197"/>
			<v:textRect cx="20.0787" cy="112.051" width="40.16" height="14.1732"/>
			<rect x="0" y="104.965" width="40.1575" height="14.1732" class="st4"/>
			<text x="16.87" y="115.65" class="st5" v:langID="1033"><v:paragraph v:horizAlign="1"/><v:tabList/>a</text>		</g>
		<g id="shape1008-25" v:mID="1008" v:groupContext="shape" transform="translate(18.375,-52.1988)">
			<title>Sheet.1008</title>
			<desc>b</desc>
			<v:textBlock v:margins="rect(4,4,4,4)" v:tabSpace="42.5197"/>
			<v:textRect cx="20.0787" cy="112.051" width="40.16" height="14.1732"/>
			<rect x="0" y="104.965" width="40.1575" height="14.1732" class="st4"/>
			<text x="16.53" y="115.65" class="st5" v:langID="1033"><v:paragraph v:horizAlign="1"/><v:tabList/>b</text>		</g>
		<g id="shape1009-28" v:mID="1009" v:groupContext="shape" transform="translate(18.375,-32.3563)">
			<title>Sheet.1009</title>
			<desc>c</desc>
			<v:textBlock v:margins="rect(4,4,4,4)" v:tabSpace="42.5197"/>
			<v:textRect cx="20.0787" cy="112.051" width="40.16" height="14.1732"/>
			<rect x="0" y="104.965" width="40.1575" height="14.1732" class="st4"/>
			<text x="17.27" y="115.65" class="st5" v:langID="1033"><v:paragraph v:horizAlign="1"/><v:tabList/>c</text>		</g>
	</g>
</svg>
