<?xml version="1.0" encoding="UTF-8" standalone="no"?>
<!DOCTYPE svg PUBLIC "-//W3C//DTD SVG 1.1//EN" "http://www.w3.org/Graphics/SVG/1.1/DTD/svg11.dtd">
<!-- Generated by Microsoft Visio, SVG Export agenda.svg Page-9 -->
<svg xmlns="http://www.w3.org/2000/svg" xmlns:xlink="http://www.w3.org/1999/xlink" xmlns:ev="http://www.w3.org/2001/xml-events"
		xmlns:v="http://schemas.microsoft.com/visio/2003/SVGExtensions/" width="12.7348in" height="4.73701in"
		viewBox="0 0 916.907 341.065" xml:space="preserve" color-interpolation-filters="sRGB" class="st11">
	<v:documentProperties v:langID="1065" v:metric="true" v:viewMarkup="false">
		<v:userDefs>
			<v:ud v:nameU="msvNoAutoConnect" v:val="VT0(1):26"/>
		</v:userDefs>
	</v:documentProperties>

	<style type="text/css">
	<![CDATA[
		.st1 {fill:#d8d8d8;stroke:#000000;stroke-linecap:round;stroke-linejoin:round;stroke-width:1}
		.st2 {fill:#000000;font-family:Cambria;font-size:1.5em;font-weight:bold}
		.st3 {font-size:1em}
		.st4 {marker-end:url(#mrkr5-11);stroke:#000000;stroke-linecap:round;stroke-linejoin:round;stroke-width:1}
		.st5 {fill:#000000;fill-opacity:1;stroke:#000000;stroke-opacity:1;stroke-width:0.28409090909091}
		.st6 {fill:none;stroke:none;stroke-linecap:round;stroke-linejoin:round;stroke-width:0.75}
		.st7 {fill:#000000;font-family:Cambria;font-size:1.16666em;font-weight:bold}
		.st8 {fill:#d8d8d8}
		.st9 {stroke:#000000;stroke-linecap:round;stroke-linejoin:round;stroke-width:1}
		.st10 {marker-end:url(#mrkr10-211);marker-start:url(#mrkr10-209);stroke:#000000;stroke-linecap:round;stroke-linejoin:round;stroke-width:1}
		.st11 {fill:none;fill-rule:evenodd;font-size:12px;overflow:visible;stroke-linecap:square;stroke-miterlimit:3}
	]]>
	</style>

	<defs id="Markers">
		<g id="lend5">
			<path d="M 2 1 L 0 0 L 1.98117 -0.993387 C 1.67173 -0.364515 1.67301 0.372641 1.98465 1.00043 " style="stroke:none"/>
		</g>
		<marker id="mrkr5-11" class="st5" v:arrowType="5" v:arrowSize="2" v:setback="6.16" refX="-6.16" orient="auto"
				markerUnits="strokeWidth" overflow="visible">
			<use xlink:href="#lend5" transform="scale(-3.52,-3.52) "/>
		</marker>
		<g id="lend10">
			<path
					d="M 0 0.75 C -0.414214 0.75 -0.75 0.414214 -0.75 0 -0.75 -0.414214 -0.414214 -0.75 0 -0.75 0.414214 -0.75 0.75 -0.414214 0.75 0 0.75 0.414214 0.414214 0.75 0 0.75 Z "
					style="stroke:none"/>
		</g>
		<marker id="mrkr10-209" class="st5" v:arrowType="10" v:arrowSize="2" v:setback="2.28" refX="2.28" orient="auto"
				markerUnits="strokeWidth" overflow="visible">
			<use xlink:href="#lend10" transform="scale(3.52) "/>
		</marker>
		<marker id="mrkr10-211" class="st5" v:arrowType="10" v:arrowSize="2" v:setback="2.64" refX="-2.64" orient="auto"
				markerUnits="strokeWidth" overflow="visible">
			<use xlink:href="#lend10" transform="scale(-3.52,-3.52) "/>
		</marker>
	</defs>
	<g v:mID="21" v:index="9" v:groupContext="foregroundPage">
		<v:userDefs>
			<v:ud v:nameU="msvThemeOrder" v:val="VT0(0):26"/>
		</v:userDefs>
		<title>Page-9</title>
		<v:pageProperties v:drawingScale="0.0393701" v:pageScale="0.0393701" v:drawingUnits="24" v:shadowOffsetX="8.50394"
				v:shadowOffsetY="-8.50394"/>
		<v:layer v:name="Flowchart" v:index="0"/>
		<g id="shape1-1" v:mID="1" v:groupContext="shape" transform="translate(670.343,-70.7153)">
			<title>Sheet.1</title>
			<desc>Full Adder FA0</desc>
			<v:textBlock v:margins="rect(2,2,2,2)" v:tabSpace="42.5197"/>
			<v:textRect cx="85.0394" cy="284.372" width="170.08" height="113.386"/>
			<rect x="0" y="227.679" width="170.079" height="113.386" class="st1"/>
			<text x="69.16" y="268.17" class="st2" v:langID="1033"><v:paragraph v:horizAlign="1" v:flags="1"/><v:tabList/>Full<v:newlineChar/><tspan
						x="59.49" dy="1.2em" class="st3">Adder<v:newlineChar/></tspan><tspan x="68.88" dy="1.2em" class="st3">FA</tspan>0</text>		</g>
		<g id="shape2-6" v:mID="2" v:groupContext="shape" transform="translate(1053.93,138.67) rotate(90)">
			<title>Sheet.2</title>
			<path d="M0 341.06 L12.13 341.06" class="st4"/>
		</g>
		<g id="shape3-12" v:mID="3" v:groupContext="shape" transform="translate(768.139,-160.215)">
			<title>Sheet.3</title>
			<desc>x</desc>
			<v:textBlock v:margins="rect(4,4,4,4)" v:tabSpace="42.5197"/>
			<v:textRect cx="29.0551" cy="329.424" width="58.12" height="23.2815"/>
			<rect x="0" y="317.783" width="58.1102" height="23.2815" class="st6"/>
			<text x="25.38" y="333.62" class="st7" v:langID="1033"><v:paragraph v:horizAlign="1" v:flags="1"/><v:tabList/>x</text>		</g>
		<g id="shape4-15" v:mID="4" v:groupContext="shape" transform="translate(684.517,-160.82)">
			<title>Sheet.4</title>
			<desc>y</desc>
			<v:textBlock v:margins="rect(4,4,4,4)" v:tabSpace="42.5197"/>
			<v:textRect cx="29.0551" cy="329.424" width="58.12" height="23.2815"/>
			<rect x="0" y="317.783" width="58.1102" height="23.2815" class="st6"/>
			<text x="25.34" y="333.62" class="st7" v:langID="1033"><v:paragraph v:horizAlign="1" v:flags="1"/><v:tabList/>y</text>		</g>
		<g id="shape5-18" v:mID="5" v:groupContext="shape" transform="translate(796.485,-115.163)">
			<title>Sheet.5</title>
			<desc>ci</desc>
			<v:textBlock v:margins="rect(4,4,4,4)" v:tabSpace="42.5197"/>
			<v:textRect cx="21.9685" cy="329.424" width="43.94" height="23.2815"/>
			<rect x="0" y="317.783" width="43.937" height="23.2815" class="st6"/>
			<text x="28.97" y="333.62" class="st7" v:langID="1033"><v:paragraph v:flags="1"/><v:tabList/>ci</text>		</g>
		<g id="shape6-21" v:mID="6" v:groupContext="shape" transform="translate(670.343,-114.257)">
			<title>Sheet.6</title>
			<desc>co</desc>
			<v:textBlock v:margins="rect(4,4,4,4)" v:tabSpace="42.5197"/>
			<v:textRect cx="29.0551" cy="329.424" width="58.12" height="23.2815"/>
			<rect x="0" y="317.783" width="58.1102" height="23.2815" class="st6"/>
			<text x="4" y="333.62" class="st7" v:langID="1033"><v:paragraph v:horizAlign="2" v:flags="1"/><v:tabList/>co</text>		</g>
		<g id="shape7-24" v:mID="7" v:groupContext="shape" transform="translate(726.328,-70.7153)">
			<title>Sheet.7</title>
			<desc>s</desc>
			<v:textBlock v:margins="rect(4,4,4,4)" v:tabSpace="42.5197"/>
			<v:textRect cx="29.0551" cy="329.424" width="58.12" height="23.2815"/>
			<rect x="0" y="317.783" width="58.1102" height="23.2815" class="st6"/>
			<text x="25.84" y="333.62" class="st7" v:langID="1033"><v:paragraph v:horizAlign="1" v:flags="1"/><v:tabList/>s</text>		</g>
		<g id="shape8-27" v:mID="8" v:groupContext="shape" v:layerMember="0" transform="translate(1039.75,91.426) rotate(90)">
			<title>XOR (Exclusive Or).1041</title>
			<v:custProps>
				<v:cp v:nameU="Cost" v:lbl="Cost" v:type="7" v:format="@" v:langID="1033"/>
				<v:cp v:nameU="Duration" v:lbl="Duration" v:type="2" v:langID="1033"/>
				<v:cp v:nameU="Resources" v:lbl="Resources" v:langID="1033"/>
			</v:custProps>
			<v:userDefs>
				<v:ud v:nameU="visVersion" v:val="VT0(15):26"/>
			</v:userDefs>
			<path d="M6.75 312.72 A43.6805 40.9505 0 0 1 6.75 341.06 L24.3 341.06 A30.9213 27.0562 -180 0 0 47.24 326.89 A30.9213
						 27.0562 -180 0 0 24.3 312.72 L6.75 312.72 Z" class="st8"/>
			<path d="M6.75 312.72 A43.6805 40.9505 0 0 1 6.75 341.06 L24.3 341.06 A30.9213 27.0562 -180 0 0 47.24 326.89 A30.9213
						 27.0562 -180 0 0 24.3 312.72 L6.75 312.72" class="st9"/>
			<path d="M-0 312.72 A40.5624 35.4921 0 0 1 -0 341.06" class="st9"/>
		</g>
		<g id="shape9-31" v:mID="9" v:groupContext="shape" transform="translate(792.233,-184.101)">
			<title>Sheet.9</title>
			<path d="M5.67 227.07 L5.67 249.75 A5.66929 5.66935 -180 0 0 -0 255.42 A5.66929 5.66923 -180 0 0 5.67 261.09 L5.67 269.59
						 L5.67 334.9" class="st4"/>
		</g>
		<g id="shape10-36" v:mID="10" v:groupContext="shape" transform="translate(1061.01,72.5284) rotate(90)">
			<title>Sheet.10</title>
			<path d="M0 341.06 L15.26 341.06" class="st4"/>
		</g>
		<g id="shape11-41" v:mID="11" v:groupContext="shape" transform="translate(1046.84,44.1267) rotate(90)">
			<title>Sheet.11</title>
			<path d="M0 341.06 L43.66 341.06" class="st4"/>
		</g>
		<g id="shape12-46" v:mID="12" v:groupContext="shape" transform="translate(1096.45,270.349) rotate(90)">
			<title>Sheet.12</title>
			<path d="M0 341.06 L21.58 341.06" class="st4"/>
		</g>
		<g id="shape13-51" v:mID="13" v:groupContext="shape" transform="translate(670.343,555.325) rotate(180)">
			<title>Sheet.13</title>
			<path d="M0 341.06 L22.19 341.06" class="st4"/>
		</g>
		<g id="shape14-56" v:mID="14" v:groupContext="shape" transform="translate(471.918,-70.7153)">
			<title>Sheet.14</title>
			<desc>Full Adder FA1</desc>
			<v:textBlock v:margins="rect(2,2,2,2)" v:tabSpace="42.5197"/>
			<v:textRect cx="85.0394" cy="284.372" width="170.08" height="113.386"/>
			<rect x="0" y="227.679" width="170.079" height="113.386" class="st1"/>
			<text x="69.16" y="268.17" class="st2" v:langID="1033"><v:paragraph v:horizAlign="1" v:flags="1"/><v:tabList/>Full<v:newlineChar/><tspan
						x="59.49" dy="1.2em" class="st3">Adder<v:newlineChar/></tspan><tspan x="68.88" dy="1.2em" class="st3">FA</tspan>1</text>		</g>
		<g id="shape15-61" v:mID="15" v:groupContext="shape" transform="translate(855.502,138.67) rotate(90)">
			<title>Sheet.15</title>
			<path d="M0 341.06 L12.13 341.06" class="st4"/>
		</g>
		<g id="shape16-66" v:mID="16" v:groupContext="shape" transform="translate(569.714,-160.215)">
			<title>Sheet.16</title>
			<desc>x</desc>
			<v:textBlock v:margins="rect(4,4,4,4)" v:tabSpace="42.5197"/>
			<v:textRect cx="29.0551" cy="329.424" width="58.12" height="23.2815"/>
			<rect x="0" y="317.783" width="58.1102" height="23.2815" class="st6"/>
			<text x="25.38" y="333.62" class="st7" v:langID="1033"><v:paragraph v:horizAlign="1" v:flags="1"/><v:tabList/>x</text>		</g>
		<g id="shape17-69" v:mID="17" v:groupContext="shape" transform="translate(486.092,-160.82)">
			<title>Sheet.17</title>
			<desc>y</desc>
			<v:textBlock v:margins="rect(4,4,4,4)" v:tabSpace="42.5197"/>
			<v:textRect cx="29.0551" cy="329.424" width="58.12" height="23.2815"/>
			<rect x="0" y="317.783" width="58.1102" height="23.2815" class="st6"/>
			<text x="25.34" y="333.62" class="st7" v:langID="1033"><v:paragraph v:horizAlign="1" v:flags="1"/><v:tabList/>y</text>		</g>
		<g id="shape18-72" v:mID="18" v:groupContext="shape" transform="translate(598.06,-115.163)">
			<title>Sheet.18</title>
			<desc>ci</desc>
			<v:textBlock v:margins="rect(4,4,4,4)" v:tabSpace="42.5197"/>
			<v:textRect cx="21.9685" cy="329.424" width="43.94" height="23.2815"/>
			<rect x="0" y="317.783" width="43.937" height="23.2815" class="st6"/>
			<text x="28.97" y="333.62" class="st7" v:langID="1033"><v:paragraph v:flags="1"/><v:tabList/>ci</text>		</g>
		<g id="shape19-75" v:mID="19" v:groupContext="shape" transform="translate(471.918,-114.257)">
			<title>Sheet.19</title>
			<desc>co</desc>
			<v:textBlock v:margins="rect(4,4,4,4)" v:tabSpace="42.5197"/>
			<v:textRect cx="29.0551" cy="329.424" width="58.12" height="23.2815"/>
			<rect x="0" y="317.783" width="58.1102" height="23.2815" class="st6"/>
			<text x="4" y="333.62" class="st7" v:langID="1033"><v:paragraph v:horizAlign="2" v:flags="1"/><v:tabList/>co</text>		</g>
		<g id="shape20-78" v:mID="20" v:groupContext="shape" transform="translate(527.903,-70.7153)">
			<title>Sheet.20</title>
			<desc>s</desc>
			<v:textBlock v:margins="rect(4,4,4,4)" v:tabSpace="42.5197"/>
			<v:textRect cx="29.0551" cy="329.424" width="58.12" height="23.2815"/>
			<rect x="0" y="317.783" width="58.1102" height="23.2815" class="st6"/>
			<text x="25.84" y="333.62" class="st7" v:langID="1033"><v:paragraph v:horizAlign="1" v:flags="1"/><v:tabList/>s</text>		</g>
		<g id="shape21-81" v:mID="21" v:groupContext="shape" v:layerMember="0" transform="translate(841.329,91.426) rotate(90)">
			<title>XOR (Exclusive Or).1056</title>
			<v:custProps>
				<v:cp v:nameU="Cost" v:lbl="Cost" v:type="7" v:format="@" v:langID="1033"/>
				<v:cp v:nameU="Duration" v:lbl="Duration" v:type="2" v:langID="1033"/>
				<v:cp v:nameU="Resources" v:lbl="Resources" v:langID="1033"/>
			</v:custProps>
			<v:userDefs>
				<v:ud v:nameU="visVersion" v:val="VT0(15):26"/>
			</v:userDefs>
			<path d="M6.75 312.72 A43.6805 40.9505 0 0 1 6.75 341.06 L24.3 341.06 A30.9213 27.0562 -180 0 0 47.24 326.89 A30.9213
						 27.0562 -180 0 0 24.3 312.72 L6.75 312.72 Z" class="st8"/>
			<path d="M6.75 312.72 A43.6805 40.9505 0 0 1 6.75 341.06 L24.3 341.06 A30.9213 27.0562 -180 0 0 47.24 326.89 A30.9213
						 27.0562 -180 0 0 24.3 312.72 L6.75 312.72" class="st9"/>
			<path d="M-0 312.72 A40.5624 35.4921 0 0 1 -0 341.06" class="st9"/>
		</g>
		<g id="shape22-85" v:mID="22" v:groupContext="shape" transform="translate(862.589,72.5284) rotate(90)">
			<title>Sheet.22</title>
			<path d="M0 341.06 L15.26 341.06" class="st4"/>
		</g>
		<g id="shape23-90" v:mID="23" v:groupContext="shape" transform="translate(848.416,44.1267) rotate(90)">
			<title>Sheet.23</title>
			<path d="M0 341.06 L43.66 341.06" class="st4"/>
		</g>
		<g id="shape24-95" v:mID="24" v:groupContext="shape" transform="translate(898.022,270.349) rotate(90)">
			<title>Sheet.24</title>
			<path d="M0 341.06 L21.58 341.06" class="st4"/>
		</g>
		<g id="shape25-100" v:mID="25" v:groupContext="shape" transform="translate(471.918,555.325) rotate(180)">
			<title>Sheet.25</title>
			<path d="M0 341.06 L22.19 341.06" class="st4"/>
		</g>
		<g id="shape26-105" v:mID="26" v:groupContext="shape" transform="translate(273.493,-70.7153)">
			<title>Sheet.26</title>
			<desc>Full Adder FA2</desc>
			<v:textBlock v:margins="rect(2,2,2,2)" v:tabSpace="42.5197"/>
			<v:textRect cx="85.0394" cy="284.372" width="170.08" height="113.386"/>
			<rect x="0" y="227.679" width="170.079" height="113.386" class="st1"/>
			<text x="69.16" y="268.17" class="st2" v:langID="1033"><v:paragraph v:horizAlign="1" v:flags="1"/><v:tabList/>Full<v:newlineChar/><tspan
						x="59.49" dy="1.2em" class="st3">Adder<v:newlineChar/></tspan><tspan x="68.88" dy="1.2em" class="st3">FA</tspan>2</text>		</g>
		<g id="shape27-110" v:mID="27" v:groupContext="shape" transform="translate(657.077,138.67) rotate(90)">
			<title>Sheet.27</title>
			<path d="M0 341.06 L12.13 341.06" class="st4"/>
		</g>
		<g id="shape28-115" v:mID="28" v:groupContext="shape" transform="translate(371.288,-160.215)">
			<title>Sheet.28</title>
			<desc>x</desc>
			<v:textBlock v:margins="rect(4,4,4,4)" v:tabSpace="42.5197"/>
			<v:textRect cx="29.0551" cy="329.424" width="58.12" height="23.2815"/>
			<rect x="0" y="317.783" width="58.1102" height="23.2815" class="st6"/>
			<text x="25.38" y="333.62" class="st7" v:langID="1033"><v:paragraph v:horizAlign="1" v:flags="1"/><v:tabList/>x</text>		</g>
		<g id="shape29-118" v:mID="29" v:groupContext="shape" transform="translate(287.666,-160.82)">
			<title>Sheet.29</title>
			<desc>y</desc>
			<v:textBlock v:margins="rect(4,4,4,4)" v:tabSpace="42.5197"/>
			<v:textRect cx="29.0551" cy="329.424" width="58.12" height="23.2815"/>
			<rect x="0" y="317.783" width="58.1102" height="23.2815" class="st6"/>
			<text x="25.34" y="333.62" class="st7" v:langID="1033"><v:paragraph v:horizAlign="1" v:flags="1"/><v:tabList/>y</text>		</g>
		<g id="shape30-121" v:mID="30" v:groupContext="shape" transform="translate(399.635,-115.163)">
			<title>Sheet.30</title>
			<desc>ci</desc>
			<v:textBlock v:margins="rect(4,4,4,4)" v:tabSpace="42.5197"/>
			<v:textRect cx="21.9685" cy="329.424" width="43.94" height="23.2815"/>
			<rect x="0" y="317.783" width="43.937" height="23.2815" class="st6"/>
			<text x="28.97" y="333.62" class="st7" v:langID="1033"><v:paragraph v:flags="1"/><v:tabList/>ci</text>		</g>
		<g id="shape31-124" v:mID="31" v:groupContext="shape" transform="translate(273.493,-114.257)">
			<title>Sheet.31</title>
			<desc>co</desc>
			<v:textBlock v:margins="rect(4,4,4,4)" v:tabSpace="42.5197"/>
			<v:textRect cx="29.0551" cy="329.424" width="58.12" height="23.2815"/>
			<rect x="0" y="317.783" width="58.1102" height="23.2815" class="st6"/>
			<text x="4" y="333.62" class="st7" v:langID="1033"><v:paragraph v:horizAlign="2" v:flags="1"/><v:tabList/>co</text>		</g>
		<g id="shape32-127" v:mID="32" v:groupContext="shape" transform="translate(329.477,-70.7153)">
			<title>Sheet.32</title>
			<desc>s</desc>
			<v:textBlock v:margins="rect(4,4,4,4)" v:tabSpace="42.5197"/>
			<v:textRect cx="29.0551" cy="329.424" width="58.12" height="23.2815"/>
			<rect x="0" y="317.783" width="58.1102" height="23.2815" class="st6"/>
			<text x="25.84" y="333.62" class="st7" v:langID="1033"><v:paragraph v:horizAlign="1" v:flags="1"/><v:tabList/>s</text>		</g>
		<g id="shape33-130" v:mID="33" v:groupContext="shape" v:layerMember="0" transform="translate(642.904,91.426) rotate(90)">
			<title>XOR (Exclusive Or).1070</title>
			<v:custProps>
				<v:cp v:nameU="Cost" v:lbl="Cost" v:type="7" v:format="@" v:langID="1033"/>
				<v:cp v:nameU="Duration" v:lbl="Duration" v:type="2" v:langID="1033"/>
				<v:cp v:nameU="Resources" v:lbl="Resources" v:langID="1033"/>
			</v:custProps>
			<v:userDefs>
				<v:ud v:nameU="visVersion" v:val="VT0(15):26"/>
			</v:userDefs>
			<path d="M6.75 312.72 A43.6805 40.9505 0 0 1 6.75 341.06 L24.3 341.06 A30.9213 27.0562 -180 0 0 47.24 326.89 A30.9213
						 27.0562 -180 0 0 24.3 312.72 L6.75 312.72 Z" class="st8"/>
			<path d="M6.75 312.72 A43.6805 40.9505 0 0 1 6.75 341.06 L24.3 341.06 A30.9213 27.0562 -180 0 0 47.24 326.89 A30.9213
						 27.0562 -180 0 0 24.3 312.72 L6.75 312.72" class="st9"/>
			<path d="M-0 312.72 A40.5624 35.4921 0 0 1 -0 341.06" class="st9"/>
		</g>
		<g id="shape34-134" v:mID="34" v:groupContext="shape" transform="translate(664.164,72.5284) rotate(90)">
			<title>Sheet.34</title>
			<path d="M0 341.06 L15.26 341.06" class="st4"/>
		</g>
		<g id="shape35-139" v:mID="35" v:groupContext="shape" transform="translate(649.991,44.1267) rotate(90)">
			<title>Sheet.35</title>
			<path d="M0 341.06 L43.66 341.06" class="st4"/>
		</g>
		<g id="shape36-144" v:mID="36" v:groupContext="shape" transform="translate(699.597,270.349) rotate(90)">
			<title>Sheet.36</title>
			<path d="M0 341.06 L21.58 341.06" class="st4"/>
		</g>
		<g id="shape37-149" v:mID="37" v:groupContext="shape" transform="translate(273.493,555.325) rotate(180)">
			<title>Sheet.37</title>
			<path d="M0 341.06 L22.19 341.06" class="st4"/>
		</g>
		<g id="shape38-154" v:mID="38" v:groupContext="shape" transform="translate(75.0679,-70.7153)">
			<title>Sheet.38</title>
			<desc>Full Adder FA3</desc>
			<v:textBlock v:margins="rect(2,2,2,2)" v:tabSpace="42.5197"/>
			<v:textRect cx="85.0394" cy="284.372" width="170.08" height="113.386"/>
			<rect x="0" y="227.679" width="170.079" height="113.386" class="st1"/>
			<text x="69.16" y="268.17" class="st2" v:langID="1033"><v:paragraph v:horizAlign="1" v:flags="1"/><v:tabList/>Full<v:newlineChar/><tspan
						x="59.49" dy="1.2em" class="st3">Adder<v:newlineChar/></tspan><tspan x="68.88" dy="1.2em" class="st3">FA</tspan>3</text>		</g>
		<g id="shape39-159" v:mID="39" v:groupContext="shape" transform="translate(458.652,138.67) rotate(90)">
			<title>Sheet.39</title>
			<path d="M0 341.06 L12.13 341.06" class="st4"/>
		</g>
		<g id="shape40-164" v:mID="40" v:groupContext="shape" transform="translate(172.863,-160.215)">
			<title>Sheet.40</title>
			<desc>x</desc>
			<v:textBlock v:margins="rect(4,4,4,4)" v:tabSpace="42.5197"/>
			<v:textRect cx="29.0551" cy="329.424" width="58.12" height="23.2815"/>
			<rect x="0" y="317.783" width="58.1102" height="23.2815" class="st6"/>
			<text x="25.38" y="333.62" class="st7" v:langID="1033"><v:paragraph v:horizAlign="1" v:flags="1"/><v:tabList/>x</text>		</g>
		<g id="shape41-167" v:mID="41" v:groupContext="shape" transform="translate(89.2412,-160.82)">
			<title>Sheet.41</title>
			<desc>y</desc>
			<v:textBlock v:margins="rect(4,4,4,4)" v:tabSpace="42.5197"/>
			<v:textRect cx="29.0551" cy="329.424" width="58.12" height="23.2815"/>
			<rect x="0" y="317.783" width="58.1102" height="23.2815" class="st6"/>
			<text x="25.34" y="333.62" class="st7" v:langID="1033"><v:paragraph v:horizAlign="1" v:flags="1"/><v:tabList/>y</text>		</g>
		<g id="shape42-170" v:mID="42" v:groupContext="shape" transform="translate(201.21,-115.163)">
			<title>Sheet.42</title>
			<desc>ci</desc>
			<v:textBlock v:margins="rect(4,4,4,4)" v:tabSpace="42.5197"/>
			<v:textRect cx="21.9685" cy="329.424" width="43.94" height="23.2815"/>
			<rect x="0" y="317.783" width="43.937" height="23.2815" class="st6"/>
			<text x="28.97" y="333.62" class="st7" v:langID="1033"><v:paragraph v:flags="1"/><v:tabList/>ci</text>		</g>
		<g id="shape43-173" v:mID="43" v:groupContext="shape" transform="translate(75.0679,-114.257)">
			<title>Sheet.43</title>
			<desc>co</desc>
			<v:textBlock v:margins="rect(4,4,4,4)" v:tabSpace="42.5197"/>
			<v:textRect cx="29.0551" cy="329.424" width="58.12" height="23.2815"/>
			<rect x="0" y="317.783" width="58.1102" height="23.2815" class="st6"/>
			<text x="4" y="333.62" class="st7" v:langID="1033"><v:paragraph v:horizAlign="2" v:flags="1"/><v:tabList/>co</text>		</g>
		<g id="shape44-176" v:mID="44" v:groupContext="shape" transform="translate(131.052,-70.7153)">
			<title>Sheet.44</title>
			<desc>s</desc>
			<v:textBlock v:margins="rect(4,4,4,4)" v:tabSpace="42.5197"/>
			<v:textRect cx="29.0551" cy="329.424" width="58.12" height="23.2815"/>
			<rect x="0" y="317.783" width="58.1102" height="23.2815" class="st6"/>
			<text x="25.84" y="333.62" class="st7" v:langID="1033"><v:paragraph v:horizAlign="1" v:flags="1"/><v:tabList/>s</text>		</g>
		<g id="shape45-179" v:mID="45" v:groupContext="shape" v:layerMember="0" transform="translate(444.479,91.426) rotate(90)">
			<title>XOR (Exclusive Or).1084</title>
			<v:custProps>
				<v:cp v:nameU="Cost" v:lbl="Cost" v:type="7" v:format="@" v:langID="1033"/>
				<v:cp v:nameU="Duration" v:lbl="Duration" v:type="2" v:langID="1033"/>
				<v:cp v:nameU="Resources" v:lbl="Resources" v:langID="1033"/>
			</v:custProps>
			<v:userDefs>
				<v:ud v:nameU="visVersion" v:val="VT0(15):26"/>
			</v:userDefs>
			<path d="M6.75 312.72 A43.6805 40.9505 0 0 1 6.75 341.06 L24.3 341.06 A30.9213 27.0562 -180 0 0 47.24 326.89 A30.9213
						 27.0562 -180 0 0 24.3 312.72 L6.75 312.72 Z" class="st8"/>
			<path d="M6.75 312.72 A43.6805 40.9505 0 0 1 6.75 341.06 L24.3 341.06 A30.9213 27.0562 -180 0 0 47.24 326.89 A30.9213
						 27.0562 -180 0 0 24.3 312.72 L6.75 312.72" class="st9"/>
			<path d="M-0 312.72 A40.5624 35.4921 0 0 1 -0 341.06" class="st9"/>
		</g>
		<g id="shape46-183" v:mID="46" v:groupContext="shape" transform="translate(465.739,72.5284) rotate(90)">
			<title>Sheet.46</title>
			<path d="M0 341.06 L15.26 341.06" class="st4"/>
		</g>
		<g id="shape47-188" v:mID="47" v:groupContext="shape" transform="translate(451.566,44.1267) rotate(90)">
			<title>Sheet.47</title>
			<path d="M0 341.06 L43.66 341.06" class="st4"/>
		</g>
		<g id="shape48-193" v:mID="48" v:groupContext="shape" transform="translate(501.172,270.349) rotate(90)">
			<title>Sheet.48</title>
			<path d="M0 341.06 L21.58 341.06" class="st4"/>
		</g>
		<g id="shape49-198" v:mID="49" v:groupContext="shape" transform="translate(46.7215,-42.9732)">
			<title>Sheet.49</title>
			<path d="M28.35 257.23 L0 257.23 L0 334.9" class="st4"/>
		</g>
		<g id="shape50-203" v:mID="50" v:groupContext="shape" transform="translate(124.674,-269.745)">
			<title>Sheet.50</title>
			<path d="M196.15 341.06 L195.79 341.06 L191.34 341.06 A7.08662 7.08661 -180 0 0 184.25 333.98 A8.26771 7.08661 -180 0
						 0 175.98 341.06 L2.64 341.06" class="st10"/>
		</g>
		<g id="shape51-212" v:mID="51" v:groupContext="shape" transform="translate(323.099,-269.745)">
			<title>Sheet.51</title>
			<path d="M198.43 341.06 L191.34 341.06 A7.08662 7.08661 -180 0 0 184.25 333.98 A8.26771 7.08661 -180 0 0 175.98 341.06
						 L0 341.06" class="st9"/>
		</g>
		<g id="shape52-215" v:mID="52" v:groupContext="shape" transform="translate(521.525,-269.745)">
			<title>Sheet.52</title>
			<path d="M196.15 341.06 L195.79 341.06 L191.34 341.06 A7.08662 7.08661 -180 0 0 184.25 333.98 A8.26771 7.08661 -180 0
						 0 175.98 341.06 L2.64 341.06" class="st10"/>
		</g>
		<g id="shape53-222" v:mID="53" v:groupContext="shape" transform="translate(868.769,412.384) rotate(180)">
			<title>Sheet.53</title>
			<path d="M2.28 341.06 L2.64 341.06 L146.18 341.06" class="st10"/>
		</g>
		<g id="shape54-229" v:mID="54" v:groupContext="shape" transform="translate(840.422,-128.013)">
			<title>Sheet.54</title>
			<path d="M28.35 199.33 L28.35 341.06 L6.16 341.06" class="st4"/>
		</g>
		<g id="shape55-234" v:mID="55" v:groupContext="shape" transform="translate(1209.83,43.5776) rotate(90)">
			<title>Sheet.55</title>
			<path d="M0 341.06 L21.58 341.06" class="st4"/>
		</g>
		<g id="shape56-239" v:mID="56" v:groupContext="shape" transform="translate(593.808,-184.101)">
			<title>Sheet.56</title>
			<path d="M5.67 227.07 L5.67 249.75 A5.66929 5.66935 -180 0 0 -0 255.42 A5.66929 5.66923 -180 0 0 5.67 261.09 L5.67 269.59
						 L5.67 334.9" class="st4"/>
		</g>
		<g id="shape57-244" v:mID="57" v:groupContext="shape" transform="translate(395.383,-184.101)">
			<title>Sheet.57</title>
			<path d="M5.67 227.07 L5.67 249.75 A5.66929 5.66935 -180 0 0 -0 255.42 A5.66929 5.66923 -180 0 0 5.67 261.09 L5.67 269.59
						 L5.67 334.9" class="st4"/>
		</g>
		<g id="shape58-249" v:mID="58" v:groupContext="shape" transform="translate(196.958,-184.101)">
			<title>Sheet.58</title>
			<path d="M5.67 227.07 L5.67 249.75 A5.66929 5.66935 -180 0 0 -0 255.42 A5.66929 5.66923 -180 0 0 5.67 261.09 L5.67 269.59
						 L5.67 334.9" class="st4"/>
		</g>
		<g id="shape59-254" v:mID="59" v:groupContext="shape" transform="translate(726.328,-21.7133)">
			<title>Sheet.59</title>
			<desc>S0</desc>
			<v:textBlock v:margins="rect(4,4,4,4)" v:tabSpace="42.5197"/>
			<v:textRect cx="29.0551" cy="333.978" width="58.12" height="14.1732"/>
			<rect x="0" y="326.891" width="58.1102" height="14.1732" class="st6"/>
			<text x="19.11" y="339.38" class="st2" v:langID="1033"><v:paragraph v:horizAlign="1" v:flags="1"/><v:tabList/>S0</text>		</g>
		<g id="shape60-257" v:mID="60" v:groupContext="shape" transform="translate(528.611,-21.7133)">
			<title>Sheet.60</title>
			<desc>S1</desc>
			<v:textBlock v:margins="rect(4,4,4,4)" v:tabSpace="42.5197"/>
			<v:textRect cx="29.0551" cy="333.978" width="58.12" height="14.1732"/>
			<rect x="0" y="326.891" width="58.1102" height="14.1732" class="st6"/>
			<text x="19.11" y="339.38" class="st2" v:langID="1033"><v:paragraph v:horizAlign="1" v:flags="1"/><v:tabList/>S1</text>		</g>
		<g id="shape61-260" v:mID="61" v:groupContext="shape" transform="translate(330.186,-21.7133)">
			<title>Sheet.61</title>
			<desc>S2</desc>
			<v:textBlock v:margins="rect(4,4,4,4)" v:tabSpace="42.5197"/>
			<v:textRect cx="29.0551" cy="333.978" width="58.12" height="14.1732"/>
			<rect x="0" y="326.891" width="58.1102" height="14.1732" class="st6"/>
			<text x="19.11" y="339.38" class="st2" v:langID="1033"><v:paragraph v:horizAlign="1" v:flags="1"/><v:tabList/>S2</text>		</g>
		<g id="shape62-263" v:mID="62" v:groupContext="shape" transform="translate(131.761,-21.7133)">
			<title>Sheet.62</title>
			<desc>S3</desc>
			<v:textBlock v:margins="rect(4,4,4,4)" v:tabSpace="42.5197"/>
			<v:textRect cx="29.0551" cy="333.978" width="58.12" height="14.1732"/>
			<rect x="0" y="326.891" width="58.1102" height="14.1732" class="st6"/>
			<text x="19.11" y="339.38" class="st2" v:langID="1033"><v:paragraph v:horizAlign="1" v:flags="1"/><v:tabList/>S3</text>		</g>
		<g id="shape63-266" v:mID="63" v:groupContext="shape" transform="translate(18.375,-21.7133)">
			<title>Sheet.63</title>
			<desc>Cout</desc>
			<v:textBlock v:margins="rect(4,4,4,4)" v:tabSpace="42.5197"/>
			<v:textRect cx="29.0551" cy="333.978" width="58.12" height="14.1732"/>
			<rect x="0" y="326.891" width="58.1102" height="14.1732" class="st6"/>
			<text x="10.11" y="339.38" class="st2" v:langID="1033"><v:paragraph v:horizAlign="1" v:flags="1"/><v:tabList/>Cout</text>		</g>
		<g id="shape64-269" v:mID="64" v:groupContext="shape" transform="translate(840.422,-305.178)">
			<title>Sheet.64</title>
			<desc>Sel</desc>
			<v:textBlock v:margins="rect(4,4,4,4)" v:tabSpace="42.5197"/>
			<v:textRect cx="29.0551" cy="333.978" width="58.12" height="14.1732"/>
			<rect x="0" y="326.891" width="58.1102" height="14.1732" class="st6"/>
			<text x="16.89" y="339.38" class="st2" v:langID="1033"><v:paragraph v:horizAlign="1" v:flags="1"/><v:tabList/>Sel</text>		</g>
		<g id="shape65-272" v:mID="65" v:groupContext="shape" transform="translate(769.556,-305.178)">
			<title>Sheet.65</title>
			<desc>A0</desc>
			<v:textBlock v:margins="rect(4,4,4,4)" v:tabSpace="42.5197"/>
			<v:textRect cx="29.0551" cy="333.978" width="58.12" height="14.1732"/>
			<rect x="0" y="326.891" width="58.1102" height="14.1732" class="st6"/>
			<text x="17.86" y="339.38" class="st2" v:langID="1033"><v:paragraph v:horizAlign="1" v:flags="1"/><v:tabList/>A0</text>		</g>
		<g id="shape66-275" v:mID="66" v:groupContext="shape" transform="translate(677.43,-305.178)">
			<title>Sheet.66</title>
			<desc>B0</desc>
			<v:textBlock v:margins="rect(4,4,4,4)" v:tabSpace="42.5197"/>
			<v:textRect cx="29.0551" cy="333.978" width="58.12" height="14.1732"/>
			<rect x="0" y="326.891" width="58.1102" height="14.1732" class="st6"/>
			<text x="17.86" y="339.38" class="st2" v:langID="1033"><v:paragraph v:horizAlign="1" v:flags="1"/><v:tabList/>B0</text>		</g>
		<g id="shape67-278" v:mID="67" v:groupContext="shape" transform="translate(569.714,-305.178)">
			<title>Sheet.67</title>
			<desc>A1</desc>
			<v:textBlock v:margins="rect(4,4,4,4)" v:tabSpace="42.5197"/>
			<v:textRect cx="29.0551" cy="333.978" width="58.12" height="14.1732"/>
			<rect x="0" y="326.891" width="58.1102" height="14.1732" class="st6"/>
			<text x="17.86" y="339.38" class="st2" v:langID="1033"><v:paragraph v:horizAlign="1" v:flags="1"/><v:tabList/>A1</text>		</g>
		<g id="shape68-281" v:mID="68" v:groupContext="shape" transform="translate(477.588,-305.178)">
			<title>Sheet.68</title>
			<desc>B1</desc>
			<v:textBlock v:margins="rect(4,4,4,4)" v:tabSpace="42.5197"/>
			<v:textRect cx="29.0551" cy="333.978" width="58.12" height="14.1732"/>
			<rect x="0" y="326.891" width="58.1102" height="14.1732" class="st6"/>
			<text x="17.86" y="339.38" class="st2" v:langID="1033"><v:paragraph v:horizAlign="1" v:flags="1"/><v:tabList/>B1</text>		</g>
		<g id="shape69-284" v:mID="69" v:groupContext="shape" transform="translate(371.288,-305.178)">
			<title>Sheet.69</title>
			<desc>A2</desc>
			<v:textBlock v:margins="rect(4,4,4,4)" v:tabSpace="42.5197"/>
			<v:textRect cx="29.0551" cy="333.978" width="58.12" height="14.1732"/>
			<rect x="0" y="326.891" width="58.1102" height="14.1732" class="st6"/>
			<text x="17.86" y="339.38" class="st2" v:langID="1033"><v:paragraph v:horizAlign="1" v:flags="1"/><v:tabList/>A2</text>		</g>
		<g id="shape70-287" v:mID="70" v:groupContext="shape" transform="translate(279.162,-305.178)">
			<title>Sheet.70</title>
			<desc>B2</desc>
			<v:textBlock v:margins="rect(4,4,4,4)" v:tabSpace="42.5197"/>
			<v:textRect cx="29.0551" cy="333.978" width="58.12" height="14.1732"/>
			<rect x="0" y="326.891" width="58.1102" height="14.1732" class="st6"/>
			<text x="17.86" y="339.38" class="st2" v:langID="1033"><v:paragraph v:horizAlign="1" v:flags="1"/><v:tabList/>B2</text>		</g>
		<g id="shape71-290" v:mID="71" v:groupContext="shape" transform="translate(171.446,-305.178)">
			<title>Sheet.71</title>
			<desc>A3</desc>
			<v:textBlock v:margins="rect(4,4,4,4)" v:tabSpace="42.5197"/>
			<v:textRect cx="29.0551" cy="333.978" width="58.12" height="14.1732"/>
			<rect x="0" y="326.891" width="58.1102" height="14.1732" class="st6"/>
			<text x="17.86" y="339.38" class="st2" v:langID="1033"><v:paragraph v:horizAlign="1" v:flags="1"/><v:tabList/>A3</text>		</g>
		<g id="shape72-293" v:mID="72" v:groupContext="shape" transform="translate(79.3199,-305.178)">
			<title>Sheet.72</title>
			<desc>B3</desc>
			<v:textBlock v:margins="rect(4,4,4,4)" v:tabSpace="42.5197"/>
			<v:textRect cx="29.0551" cy="333.978" width="58.12" height="14.1732"/>
			<rect x="0" y="326.891" width="58.1102" height="14.1732" class="st6"/>
			<text x="17.86" y="339.38" class="st2" v:langID="1033"><v:paragraph v:horizAlign="1" v:flags="1"/><v:tabList/>B3</text>		</g>
		<g id="shape73-296" v:mID="73" v:groupContext="shape" transform="translate(639.162,-130.545)">
			<title>Sheet.73</title>
			<desc>C01</desc>
			<v:textBlock v:margins="rect(4,4,4,4)" v:tabSpace="42.5197"/>
			<v:textRect cx="17.7165" cy="333.978" width="35.44" height="14.1732"/>
			<rect x="0" y="326.891" width="35.4331" height="14.1732" class="st6"/>
			<text x="5.41" y="338.18" class="st7" v:langID="1033"><v:paragraph v:horizAlign="1" v:flags="1"/><v:tabList/>C01</text>		</g>
		<g id="shape74-299" v:mID="74" v:groupContext="shape" transform="translate(440.029,-130.545)">
			<title>Sheet.74</title>
			<desc>C12</desc>
			<v:textBlock v:margins="rect(4,4,4,4)" v:tabSpace="42.5197"/>
			<v:textRect cx="17.7165" cy="333.978" width="35.44" height="14.1732"/>
			<rect x="0" y="326.891" width="35.4331" height="14.1732" class="st6"/>
			<text x="5.41" y="338.18" class="st7" v:langID="1033"><v:paragraph v:horizAlign="1" v:flags="1"/><v:tabList/>C12</text>		</g>
		<g id="shape75-302" v:mID="75" v:groupContext="shape" transform="translate(241.603,-130.545)">
			<title>Sheet.75</title>
			<desc>C23</desc>
			<v:textBlock v:margins="rect(4,4,4,4)" v:tabSpace="42.5197"/>
			<v:textRect cx="17.7165" cy="333.978" width="35.44" height="14.1732"/>
			<rect x="0" y="326.891" width="35.4331" height="14.1732" class="st6"/>
			<text x="5.41" y="338.18" class="st7" v:langID="1033"><v:paragraph v:horizAlign="1" v:flags="1"/><v:tabList/>C23</text>		</g>
	</g>
</svg>
