<?xml version="1.0" encoding="UTF-8" standalone="no"?>
<!DOCTYPE svg PUBLIC "-//W3C//DTD SVG 1.1//EN" "http://www.w3.org/Graphics/SVG/1.1/DTD/svg11.dtd">
<!-- Generated by Microsoft Visio, SVG Export agenda.svg Page-8 -->
<svg xmlns="http://www.w3.org/2000/svg" xmlns:xlink="http://www.w3.org/1999/xlink" xmlns:ev="http://www.w3.org/2001/xml-events"
		xmlns:v="http://schemas.microsoft.com/visio/2003/SVGExtensions/" width="4.86081in" height="4.44173in"
		viewBox="0 0 349.978 319.805" xml:space="preserve" color-interpolation-filters="sRGB" class="st10">
	<v:documentProperties v:langID="1065" v:metric="true" v:viewMarkup="false">
		<v:userDefs>
			<v:ud v:nameU="msvNoAutoConnect" v:val="VT0(1):26"/>
		</v:userDefs>
	</v:documentProperties>

	<style type="text/css">
	<![CDATA[
		.st1 {fill:#d8d8d8;stroke:#000000;stroke-linecap:round;stroke-linejoin:round;stroke-width:1}
		.st2 {fill:#000000;font-family:Cambria;font-size:1.5em;font-weight:bold}
		.st3 {font-size:1em}
		.st4 {marker-end:url(#mrkr5-10);stroke:#000000;stroke-linecap:round;stroke-linejoin:round;stroke-width:1}
		.st5 {fill:#000000;fill-opacity:1;stroke:#000000;stroke-opacity:1;stroke-width:0.28409090909091}
		.st6 {fill:none;stroke:none;stroke-linecap:round;stroke-linejoin:round;stroke-width:0.75}
		.st7 {fill:#000000;font-family:Cambria;font-size:1.16666em;font-weight:bold}
		.st8 {fill:#d8d8d8}
		.st9 {stroke:#000000;stroke-linecap:round;stroke-linejoin:round;stroke-width:1}
		.st10 {fill:none;fill-rule:evenodd;font-size:12px;overflow:visible;stroke-linecap:square;stroke-miterlimit:3}
	]]>
	</style>

	<defs id="Markers">
		<g id="lend5">
			<path d="M 2 1 L 0 0 L 1.98117 -0.993387 C 1.67173 -0.364515 1.67301 0.372641 1.98465 1.00043 " style="stroke:none"/>
		</g>
		<marker id="mrkr5-10" class="st5" v:arrowType="5" v:arrowSize="2" v:setback="6.16" refX="-6.16" orient="auto"
				markerUnits="strokeWidth" overflow="visible">
			<use xlink:href="#lend5" transform="scale(-3.52,-3.52) "/>
		</marker>
	</defs>
	<g v:mID="20" v:index="8" v:groupContext="foregroundPage">
		<v:userDefs>
			<v:ud v:nameU="msvThemeOrder" v:val="VT0(0):26"/>
		</v:userDefs>
		<title>Page-8</title>
		<v:pageProperties v:drawingScale="0.0393701" v:pageScale="0.0393701" v:drawingUnits="24" v:shadowOffsetX="8.50394"
				v:shadowOffsetY="-8.50394"/>
		<v:layer v:name="Flowchart" v:index="0"/>
		<g id="shape1-1" v:mID="1" v:groupContext="shape" transform="translate(96.3278,-64.8374)">
			<title>Sheet.1</title>
			<desc>Full Adder</desc>
			<v:textBlock v:margins="rect(2,2,2,2)" v:tabSpace="42.5197"/>
			<v:textRect cx="85.0394" cy="263.112" width="170.08" height="113.386"/>
			<rect x="0" y="206.419" width="170.079" height="113.386" class="st1"/>
			<text x="69.16" y="257.71" class="st2" v:langID="1033"><v:paragraph v:horizAlign="1" v:flags="1"/><v:tabList/>Full<v:newlineChar/><tspan
						x="59.49" dy="1.2em" class="st3">Adder</tspan></text>		</g>
		<g id="shape2-5" v:mID="2" v:groupContext="shape" transform="translate(458.652,123.288) rotate(90)">
			<title>Sheet.2</title>
			<path d="M0 319.8 L12.13 319.8" class="st4"/>
		</g>
		<g id="shape3-11" v:mID="3" v:groupContext="shape" transform="translate(294.753,518.683) rotate(180)">
			<title>Sheet.3</title>
			<path d="M0 319.8 L22.19 319.8" class="st4"/>
		</g>
		<g id="shape4-16" v:mID="4" v:groupContext="shape" transform="translate(194.123,-154.337)">
			<title>Sheet.4</title>
			<desc>x</desc>
			<v:textBlock v:margins="rect(4,4,4,4)" v:tabSpace="42.5197"/>
			<v:textRect cx="29.0551" cy="308.164" width="58.12" height="23.2815"/>
			<rect x="0" y="296.523" width="58.1102" height="23.2815" class="st6"/>
			<text x="25.38" y="312.36" class="st7" v:langID="1033"><v:paragraph v:horizAlign="1" v:flags="1"/><v:tabList/>x</text>		</g>
		<g id="shape5-19" v:mID="5" v:groupContext="shape" transform="translate(110.501,-154.942)">
			<title>Sheet.5</title>
			<desc>y</desc>
			<v:textBlock v:margins="rect(4,4,4,4)" v:tabSpace="42.5197"/>
			<v:textRect cx="29.0551" cy="308.164" width="58.12" height="23.2815"/>
			<rect x="0" y="296.523" width="58.1102" height="23.2815" class="st6"/>
			<text x="25.34" y="312.36" class="st7" v:langID="1033"><v:paragraph v:horizAlign="1" v:flags="1"/><v:tabList/>y</text>		</g>
		<g id="shape6-22" v:mID="6" v:groupContext="shape" transform="translate(222.469,-109.285)">
			<title>Sheet.6</title>
			<desc>ci</desc>
			<v:textBlock v:margins="rect(4,4,4,4)" v:tabSpace="42.5197"/>
			<v:textRect cx="21.9685" cy="308.164" width="43.94" height="23.2815"/>
			<rect x="0" y="296.523" width="43.937" height="23.2815" class="st6"/>
			<text x="28.97" y="312.36" class="st7" v:langID="1033"><v:paragraph v:flags="1"/><v:tabList/>ci</text>		</g>
		<g id="shape7-25" v:mID="7" v:groupContext="shape" transform="translate(96.3278,-108.379)">
			<title>Sheet.7</title>
			<desc>co</desc>
			<v:textBlock v:margins="rect(4,4,4,4)" v:tabSpace="42.5197"/>
			<v:textRect cx="29.0551" cy="308.164" width="58.12" height="23.2815"/>
			<rect x="0" y="296.523" width="58.1102" height="23.2815" class="st6"/>
			<text x="4" y="312.36" class="st7" v:langID="1033"><v:paragraph v:horizAlign="2" v:flags="1"/><v:tabList/>co</text>		</g>
		<g id="shape8-28" v:mID="8" v:groupContext="shape" transform="translate(152.312,-64.8374)">
			<title>Sheet.8</title>
			<desc>s</desc>
			<v:textBlock v:margins="rect(4,4,4,4)" v:tabSpace="42.5197"/>
			<v:textRect cx="29.0551" cy="308.164" width="58.12" height="23.2815"/>
			<rect x="0" y="296.523" width="58.1102" height="23.2815" class="st6"/>
			<text x="25.84" y="312.36" class="st7" v:langID="1033"><v:paragraph v:horizAlign="1" v:flags="1"/><v:tabList/>s</text>		</g>
		<g id="shape9-31" v:mID="9" v:groupContext="shape" v:layerMember="0" transform="translate(444.479,76.0441) rotate(90)">
			<title>XOR (Exclusive Or).1021</title>
			<v:custProps>
				<v:cp v:nameU="Cost" v:lbl="Cost" v:type="7" v:format="@" v:langID="1033"/>
				<v:cp v:nameU="Duration" v:lbl="Duration" v:type="2" v:langID="1033"/>
				<v:cp v:nameU="Resources" v:lbl="Resources" v:langID="1033"/>
			</v:custProps>
			<v:userDefs>
				<v:ud v:nameU="visVersion" v:val="VT0(15):26"/>
			</v:userDefs>
			<path d="M6.75 291.46 A43.6805 40.9505 0 0 1 6.75 319.8 L24.3 319.8 A30.9213 27.0562 -180 0 0 47.24 305.63 A30.9213 27.0562
						 -180 0 0 24.3 291.46 L6.75 291.46 Z" class="st8"/>
			<path d="M6.75 291.46 A43.6805 40.9505 0 0 1 6.75 319.8 L24.3 319.8 A30.9213 27.0562 -180 0 0 47.24 305.63 A30.9213 27.0562
						 -180 0 0 24.3 291.46 L6.75 291.46" class="st9"/>
			<path d="M-0 291.46 A40.5624 35.4921 0 0 1 -0 319.8" class="st9"/>
		</g>
		<g id="shape10-35" v:mID="10" v:groupContext="shape" transform="translate(543.691,113.839) rotate(90)">
			<title>Sheet.10</title>
			<path d="M0 319.8 L21.58 319.8" class="st4"/>
		</g>
		<g id="shape11-40" v:mID="11" v:groupContext="shape" transform="translate(465.739,57.1464) rotate(90)">
			<title>Sheet.11</title>
			<path d="M0 319.8 L15.26 319.8" class="st4"/>
		</g>
		<g id="shape12-45" v:mID="12" v:groupContext="shape" transform="translate(451.565,37.0677) rotate(90)">
			<title>Sheet.12</title>
			<path d="M0 319.8 L35.34 319.8" class="st4"/>
		</g>
		<g id="shape13-50" v:mID="13" v:groupContext="shape" transform="translate(501.172,254.967) rotate(90)">
			<title>Sheet.13</title>
			<path d="M0 319.8 L21.58 319.8" class="st4"/>
		</g>
		<g id="shape14-55" v:mID="14" v:groupContext="shape" transform="translate(96.3278,518.683) rotate(180)">
			<title>Sheet.14</title>
			<path d="M0 319.8 L22.19 319.8" class="st4"/>
		</g>
		<g id="shape15-60" v:mID="15" v:groupContext="shape" transform="translate(294.753,-113.839)">
			<title>Sheet.15</title>
			<desc>cin</desc>
			<v:textBlock v:margins="rect(4,4,4,4)" v:tabSpace="42.5197"/>
			<v:textRect cx="18.4252" cy="312.718" width="36.86" height="14.1732"/>
			<rect x="0" y="305.631" width="36.8504" height="14.1732" class="st6"/>
			<text x="5.95" y="318.12" class="st2" v:langID="1033"><v:paragraph v:horizAlign="1" v:flags="1"/><v:tabList/>cin</text>		</g>
		<g id="shape16-63" v:mID="16" v:groupContext="shape" transform="translate(205.462,-210.217)">
			<title>Sheet.16</title>
			<desc>a</desc>
			<v:textBlock v:margins="rect(4,4,4,4)" v:tabSpace="42.5197"/>
			<v:textRect cx="18.4252" cy="312.718" width="36.86" height="14.1732"/>
			<rect x="0" y="305.631" width="36.8504" height="14.1732" class="st6"/>
			<text x="13.61" y="318.12" class="st2" v:langID="1033"><v:paragraph v:horizAlign="1" v:flags="1"/><v:tabList/>a</text>		</g>
		<g id="shape17-66" v:mID="17" v:groupContext="shape" transform="translate(113.336,-283.918)">
			<title>Sheet.17</title>
			<desc>b</desc>
			<v:textBlock v:margins="rect(4,4,4,4)" v:tabSpace="42.5197"/>
			<v:textRect cx="18.4252" cy="312.718" width="36.86" height="14.1732"/>
			<rect x="0" y="305.631" width="36.8504" height="14.1732" class="st6"/>
			<text x="13.1" y="318.12" class="st2" v:langID="1033"><v:paragraph v:horizAlign="1" v:flags="1"/><v:tabList/>b</text>		</g>
		<g id="shape18-69" v:mID="18" v:groupContext="shape" transform="translate(127.509,-265.02)">
			<title>Sheet.18</title>
			<desc>sel</desc>
			<v:textBlock v:margins="rect(4,4,4,4)" v:tabSpace="42.5197"/>
			<v:textRect cx="18.4252" cy="312.718" width="36.86" height="14.1732"/>
			<rect x="0" y="305.631" width="36.8504" height="14.1732" class="st6"/>
			<text x="6.75" y="318.12" class="st2" v:langID="1033"><v:paragraph v:horizAlign="1" v:flags="1"/><v:tabList/>sel</text>		</g>
		<g id="shape19-72" v:mID="19" v:groupContext="shape" transform="translate(18.375,-113.839)">
			<title>Sheet.19</title>
			<desc>cout</desc>
			<v:textBlock v:margins="rect(4,4,4,4)" v:tabSpace="42.5197"/>
			<v:textRect cx="29.0551" cy="312.718" width="58.12" height="14.1732"/>
			<rect x="0" y="305.631" width="58.1102" height="14.1732" class="st6"/>
			<text x="11.05" y="318.12" class="st2" v:langID="1033"><v:paragraph v:horizAlign="1" v:flags="1"/><v:tabList/>cout</text>		</g>
		<g id="shape20-75" v:mID="20" v:groupContext="shape" transform="translate(152.312,-21.7133)">
			<title>Sheet.20</title>
			<desc>sum</desc>
			<v:textBlock v:margins="rect(4,4,4,4)" v:tabSpace="42.5197"/>
			<v:textRect cx="29.0551" cy="312.718" width="58.12" height="14.1732"/>
			<rect x="0" y="305.631" width="58.1102" height="14.1732" class="st6"/>
			<text x="11.54" y="318.12" class="st2" v:langID="1033"><v:paragraph v:horizAlign="1" v:flags="1"/><v:tabList/>sum</text>		</g>
	</g>
</svg>
